<svg width="100" height="100" viewBox="0 0 100 100" fill="none" xmlns="http://www.w3.org/2000/svg">
<path d="M49.9999 91.6667C26.9874 91.6667 8.33325 73.0125 8.33325 50C8.33325 26.9875 26.9874 8.33333 49.9999 8.33333C73.0124 8.33333 91.6666 26.9875 91.6666 50C91.6666 73.0125 73.0124 91.6667 49.9999 91.6667ZM49.9999 83.3333C58.8405 83.3333 67.3189 79.8214 73.5702 73.5702C79.8214 67.319 83.3333 58.8405 83.3333 50C83.3333 41.1594 79.8214 32.681 73.5702 26.4298C67.3189 20.1786 58.8405 16.6667 49.9999 16.6667C41.1594 16.6667 32.6809 20.1786 26.4297 26.4298C20.1785 32.681 16.6666 41.1594 16.6666 50C16.6666 58.8405 20.1785 67.319 26.4297 73.5702C32.6809 79.8214 41.1594 83.3333 49.9999 83.3333ZM45.8333 62.5H54.1666V70.8333H45.8333V62.5ZM45.8333 29.1667H54.1666V54.1667H45.8333V29.1667Z" fill="#EF5F5F"/>
</svg>
